{
  "accessors": [
    {
      "bufferView": 2,
      "componentType": 5126,
      "count": 36322,
      "max": [
        0.9999998211860657,
        1.0155532360076904,
        1.868201732635498
      ],
      "min": [
        -1.000000238418579,
        -0.9844467639923096,
        -0.2813008427619934
      ],
      "type": "VEC3"
    },
    {
      "bufferView": 2,
      "byteOffset": 435864,
      "componentType": 5126,
      "count": 36322,
      "max": [
        1.0,
        1.0,
        1.0
      ],
      "min": [
        -1.0,
        -1.0,
        -1.0
      ],
      "type": "VEC3"
    },
    {
      "bufferView": 3,
      "componentType": 5126,
      "count": 36322,
      "max": [
        1.0,
        1.0,
        1.0,
        1.0
      ],
      "min": [
        -1.0,
        -1.0,
        -1.0,
        1.0
      ],
      "type": "VEC4"
    },
    {
      "bufferView": 1,
      "componentType": 5126,
      "count": 36322,
      "max": [
        0.9954803586006165,
        0.9650259613990784
      ],
      "min": [
        0.0045196861028671265,
        0.004519694484770298
      ],
      "type": "VEC2"
    },
    {
      "bufferView": 1,
      "byteOffset": 290576,
      "componentType": 5126,
      "count": 36322,
      "max": [
        0.9954803586006165,
        0.9650259613990784
      ],
      "min": [
        0.0045196861028671265,
        0.004519694484770298
      ],
      "type": "VEC2"
    },
    {
      "bufferView": 1,
      "byteOffset": 581152,
      "componentType": 5126,
      "count": 36322,
      "max": [
        0.9954803586006165,
        0.9650259613990784
      ],
      "min": [
        0.0045196861028671265,
        0.004519694484770298
      ],
      "type": "VEC2"
    },
    {
      "bufferView": 1,
      "byteOffset": 871728,
      "componentType": 5126,
      "count": 36322,
      "max": [
        0.9954803586006165,
        0.9650259613990784
      ],
      "min": [
        0.0045196861028671265,
        0.004519694484770298
      ],
      "type": "VEC2"
    },
    {
      "bufferView": 0,
      "componentType": 5125,
      "count": 56496,
      "type": "SCALAR"
    },
    {
      "bufferView": 2,
      "byteOffset": 871728,
      "componentType": 5126,
      "count": 2256,
      "max": [
        1.0000001192092896,
        0.9999999403953552,
        1.0
      ],
      "min": [
        -0.9999999403953552,
        -1.0000001192092896,
        -1.0
      ],
      "type": "VEC3"
    },
    {
      "bufferView": 2,
      "byteOffset": 898800,
      "componentType": 5126,
      "count": 2256,
      "max": [
        1.0,
        1.0,
        1.0
      ],
      "min": [
        -1.0,
        -1.0,
        -1.0
      ],
      "type": "VEC3"
    },
    {
      "bufferView": 3,
      "byteOffset": 581152,
      "componentType": 5126,
      "count": 2256,
      "max": [
        8.593584425398149e-06,
        1.0,
        1.0,
        1.0
      ],
      "min": [
        -8.686902219778858e-06,
        0.0,
        -1.0,
        1.0
      ],
      "type": "VEC4"
    },
    {
      "bufferView": 1,
      "byteOffset": 1162304,
      "componentType": 5126,
      "count": 2256,
      "max": [
        1.0,
        0.9954973459243774
      ],
      "min": [
        0.0,
        0.0
      ],
      "type": "VEC2"
    },
    {
      "bufferView": 1,
      "byteOffset": 1180352,
      "componentType": 5126,
      "count": 2256,
      "max": [
        1.0,
        0.9954973459243774
      ],
      "min": [
        0.0,
        0.0
      ],
      "type": "VEC2"
    },
    {
      "bufferView": 1,
      "byteOffset": 1198400,
      "componentType": 5126,
      "count": 2256,
      "max": [
        1.0,
        0.9954973459243774
      ],
      "min": [
        0.0,
        0.0
      ],
      "type": "VEC2"
    },
    {
      "bufferView": 1,
      "byteOffset": 1216448,
      "componentType": 5126,
      "count": 2256,
      "max": [
        1.0,
        0.9954973459243774
      ],
      "min": [
        0.0,
        0.0
      ],
      "type": "VEC2"
    },
    {
      "bufferView": 0,
      "byteOffset": 225984,
      "componentType": 5125,
      "count": 3444,
      "type": "SCALAR"
    },
    {
      "bufferView": 2,
      "byteOffset": 925872,
      "componentType": 5126,
      "count": 1156,
      "max": [
        1.0000003576278687,
        4.637683868408203,
        1.0000001192092896
      ],
      "min": [
        -1.0000003576278687,
        -6.652222633361816,
        -1.0000001192092896
      ],
      "type": "VEC3"
    },
    {
      "bufferView": 2,
      "byteOffset": 939744,
      "componentType": 5126,
      "count": 1156,
      "max": [
        1.0,
        1.0,
        1.0
      ],
      "min": [
        -1.0,
        -1.0,
        -1.0
      ],
      "type": "VEC3"
    },
    {
      "bufferView": 3,
      "byteOffset": 617248,
      "componentType": 5126,
      "count": 1156,
      "max": [
        1.0,
        0.9995073676109314,
        1.0,
        1.0
      ],
      "min": [
        -1.0,
        -0.9995071887969971,
        -1.0,
        -1.0
      ],
      "type": "VEC4"
    },
    {
      "bufferView": 1,
      "byteOffset": 1234496,
      "componentType": 5126,
      "count": 1156,
      "max": [
        0.7014793157577515,
        1.0
      ],
      "min": [
        0.0,
        0.0
      ],
      "type": "VEC2"
    },
    {
      "bufferView": 1,
      "byteOffset": 1243744,
      "componentType": 5126,
      "count": 1156,
      "max": [
        0.7014793157577515,
        1.0
      ],
      "min": [
        0.0,
        0.0
      ],
      "type": "VEC2"
    },
    {
      "bufferView": 1,
      "byteOffset": 1252992,
      "componentType": 5126,
      "count": 1156,
      "max": [
        0.7014793157577515,
        1.0
      ],
      "min": [
        0.0,
        0.0
      ],
      "type": "VEC2"
    },
    {
      "bufferView": 1,
      "byteOffset": 1262240,
      "componentType": 5126,
      "count": 1156,
      "max": [
        0.7014793157577515,
        1.0
      ],
      "min": [
        0.0,
        0.0
      ],
      "type": "VEC2"
    },
    {
      "bufferView": 0,
      "byteOffset": 239760,
      "componentType": 5125,
      "count": 3588,
      "type": "SCALAR"
    },
    {
      "bufferView": 2,
      "byteOffset": 953616,
      "componentType": 5126,
      "count": 777,
      "max": [
        1.4714984893798828,
        0.25198137760162354,
        0.6481268405914307
      ],
      "min": [
        -0.800309419631958,
        -0.5076442956924438,
        -1.4829033613204956
      ],
      "type": "VEC3"
    },
    {
      "bufferView": 2,
      "byteOffset": 962940,
      "componentType": 5126,
      "count": 777,
      "max": [
        1.0,
        0.9905666708946228,
        0.9905858039855957
      ],
      "min": [
        -0.9946264028549194,
        -0.9906377792358398,
        -0.9905713200569153
      ],
      "type": "VEC3"
    },
    {
      "bufferView": 1,
      "byteOffset": 1271488,
      "componentType": 5126,
      "count": 777,
      "max": [
        0.906124472618103,
        1.0
      ],
      "min": [
        0.0,
        0.0
      ],
      "type": "VEC2"
    },
    {
      "bufferView": 1,
      "byteOffset": 1277704,
      "componentType": 5126,
      "count": 777,
      "max": [
        0.906124472618103,
        1.0
      ],
      "min": [
        0.0,
        0.0
      ],
      "type": "VEC2"
    },
    {
      "bufferView": 1,
      "byteOffset": 1283920,
      "componentType": 5126,
      "count": 777,
      "max": [
        0.906124472618103,
        1.0
      ],
      "min": [
        0.0,
        0.0
      ],
      "type": "VEC2"
    },
    {
      "bufferView": 0,
      "byteOffset": 254112,
      "componentType": 5125,
      "count": 3444,
      "type": "SCALAR"
    }
  ],
  "asset": {
    "extras": {
      "author": "Christian.Bittner (https://sketchfab.com/Christian.Bittner)",
      "license": "CC-BY-4.0 (http://creativecommons.org/licenses/by/4.0/)",
      "source": "https://sketchfab.com/3d-models/electronic-stepper-motor-458dbc5bf94045f8beff19e13898ad2f",
      "title": "Electronic Stepper Motor"
    },
    "generator": "Sketchfab-12.65.0",
    "version": "2.0"
  },
  "bufferViews": [
    {
      "buffer": 0,
      "byteLength": 267888,
      "name": "floatBufferViews",
      "target": 34963
    },
    {
      "buffer": 0,
      "byteLength": 1290136,
      "byteOffset": 267888,
      "byteStride": 8,
      "name": "floatBufferViews",
      "target": 34962
    },
    {
      "buffer": 0,
      "byteLength": 972264,
      "byteOffset": 1558024,
      "byteStride": 12,
      "name": "floatBufferViews",
      "target": 34962
    },
    {
      "buffer": 0,
      "byteLength": 635744,
      "byteOffset": 2530288,
      "byteStride": 16,
      "name": "floatBufferViews",
      "target": 34962
    }
  ],
  "buffers": [
    {
      "byteLength": 3166032,
      "uri": "scene.bin"
    }
  ],
  "images": [
    {
      "uri": "textures/Material.001_baseColor.png"
    },
    {
      "uri": "textures/Material.001_metallicRoughness.png"
    },
    {
      "uri": "textures/Material.001_normal.png"
    },
    {
      "uri": "textures/Material.012_baseColor.png"
    },
    {
      "uri": "textures/Material.012_metallicRoughness.png"
    },
    {
      "uri": "textures/Material.012_normal.png"
    },
    {
      "uri": "textures/Material_baseColor.png"
    },
    {
      "uri": "textures/Material_metallicRoughness.png"
    },
    {
      "uri": "textures/Material_normal.png"
    },
    {
      "uri": "textures/Material.003_baseColor.png"
    },
    {
      "uri": "textures/Material.003_metallicRoughness.png"
    }
  ],
  "materials": [
    {
      "doubleSided": true,
      "name": "Material.001",
      "normalTexture": {
        "index": 2
      },
      "pbrMetallicRoughness": {
        "baseColorTexture": {
          "index": 0
        },
        "metallicRoughnessTexture": {
          "index": 1
        },
        "roughnessFactor": 0.190909
      }
    },
    {
      "doubleSided": true,
      "name": "Material.012",
      "normalTexture": {
        "index": 5
      },
      "pbrMetallicRoughness": {
        "baseColorTexture": {
          "index": 3
        },
        "metallicRoughnessTexture": {
          "index": 4
        }
      }
    },
    {
      "doubleSided": true,
      "name": "Material",
      "normalTexture": {
        "index": 8
      },
      "pbrMetallicRoughness": {
        "baseColorTexture": {
          "index": 6
        },
        "metallicRoughnessTexture": {
          "index": 7
        }
      }
    },
    {
      "doubleSided": true,
      "name": "Material.003",
      "pbrMetallicRoughness": {
        "baseColorTexture": {
          "index": 9
        },
        "metallicFactor": 0.0,
        "metallicRoughnessTexture": {
          "index": 10
        }
      }
    }
  ],
  "meshes": [
    {
      "name": "Object_0",
      "primitives": [
        {
          "attributes": {
            "NORMAL": 1,
            "POSITION": 0,
            "TANGENT": 2,
            "TEXCOORD_0": 3,
            "TEXCOORD_1": 4,
            "TEXCOORD_2": 5,
            "TEXCOORD_3": 6
          },
          "indices": 7,
          "material": 0,
          "mode": 4
        }
      ]
    },
    {
      "name": "Object_1",
      "primitives": [
        {
          "attributes": {
            "NORMAL": 9,
            "POSITION": 8,
            "TANGENT": 10,
            "TEXCOORD_0": 11,
            "TEXCOORD_1": 12,
            "TEXCOORD_2": 13,
            "TEXCOORD_3": 14
          },
          "indices": 15,
          "material": 1,
          "mode": 4
        }
      ]
    },
    {
      "name": "Object_2",
      "primitives": [
        {
          "attributes": {
            "NORMAL": 17,
            "POSITION": 16,
            "TANGENT": 18,
            "TEXCOORD_0": 19,
            "TEXCOORD_1": 20,
            "TEXCOORD_2": 21,
            "TEXCOORD_3": 22
          },
          "indices": 23,
          "material": 2,
          "mode": 4
        }
      ]
    },
    {
      "name": "Object_3",
      "primitives": [
        {
          "attributes": {
            "NORMAL": 25,
            "POSITION": 24,
            "TEXCOORD_0": 26,
            "TEXCOORD_1": 27,
            "TEXCOORD_2": 28
          },
          "indices": 29,
          "material": 3,
          "mode": 4
        }
      ]
    }
  ],
  "nodes": [
    {
      "children": [
        1
      ],
      "matrix": [
        1.0,
        0.0,
        0.0,
        0.0,
        0.0,
        2.220446049250313e-16,
        -1.0,
        0.0,
        0.0,
        1.0,
        2.220446049250313e-16,
        0.0,
        0.0,
        0.0,
        0.0,
        1.0
      ],
      "name": "Sketchfab_model"
    },
    {
      "children": [
        2
      ],
      "name": "root"
    },
    {
      "children": [
        3,
        5,
        7,
        9
      ],
      "matrix": [
        1.0,
        0.0,
        0.0,
        0.0,
        0.0,
        2.220446049250313e-16,
        1.0,
        0.0,
        0.0,
        -1.0,
        2.220446049250313e-16,
        0.0,
        0.0,
        0.0,
        0.0,
        1.0
      ],
      "name": "GLTF_SceneRootNode"
    },
    {
      "children": [
        4
      ],
      "matrix": [
        0.06324124336242676,
        0.0,
        0.0,
        0.0,
        0.0,
        0.06324124336242676,
        0.0,
        0.0,
        0.0,
        0.0,
        0.06324124336242676,
        0.0,
        0.004734722897410393,
        0.0028669126331806183,
        -0.053017064929008484,
        1.0
      ],
      "name": "Cube_0"
    },
    {
      "mesh": 0,
      "name": "Object_4"
    },
    {
      "children": [
        6
      ],
      "matrix": [
        0.06028461083769798,
        0.0,
        0.0,
        0.0,
        0.0,
        0.06028461083769798,
        0.0,
        0.0,
        0.0,
        0.0,
        0.031463172286748886,
        0.0,
        0.004734722897410393,
        0.003850516863167286,
        0.0018890835344791412,
        1.0
      ],
      "name": "Cube.001_1"
    },
    {
      "mesh": 1,
      "name": "Object_6"
    },
    {
      "children": [
        8
      ],
      "matrix": [
        0.007404896896332502,
        0.0,
        0.0,
        0.0,
        0.0,
        0.0,
        0.0065458063036203384,
        0.0,
        0.0,
        -0.007404896896332502,
        0.0,
        0.0,
        0.004734722897410393,
        0.003850516863167286,
        -0.09179451316595078,
        1.0
      ],
      "name": "Cylinder_2"
    },
    {
      "mesh": 2,
      "name": "Object_8"
    },
    {
      "children": [
        10
      ],
      "matrix": [
        0.0,
        0.0,
        -0.06324124336242676,
        0.0,
        0.0,
        0.06324124336242676,
        0.0,
        0.0,
        0.06324124336242676,
        0.0,
        0.0,
        0.0,
        -0.030552949756383896,
        -0.037741221487522125,
        0.11662548780441284,
        1.0
      ],
      "name": "NurbsPath_3"
    },
    {
      "mesh": 3,
      "name": "Object_10"
    }
  ],
  "samplers": [
    {
      "magFilter": 9729,
      "minFilter": 9987,
      "wrapS": 10497,
      "wrapT": 10497
    }
  ],
  "scene": 0,
  "scenes": [
    {
      "name": "Sketchfab_Scene",
      "nodes": [
        0
      ]
    }
  ],
  "textures": [
    {
      "sampler": 0,
      "source": 0
    },
    {
      "sampler": 0,
      "source": 1
    },
    {
      "sampler": 0,
      "source": 2
    },
    {
      "sampler": 0,
      "source": 3
    },
    {
      "sampler": 0,
      "source": 4
    },
    {
      "sampler": 0,
      "source": 5
    },
    {
      "sampler": 0,
      "source": 6
    },
    {
      "sampler": 0,
      "source": 7
    },
    {
      "sampler": 0,
      "source": 8
    },
    {
      "sampler": 0,
      "source": 9
    },
    {
      "sampler": 0,
      "source": 10
    }
  ]
}
