{
  "accessors": [
    {
      "bufferView": 2,
      "componentType": 5126,
      "count": 88,
      "max": [
        69.54304504394531,
        64.49420166015625,
        106.29067993164063
      ],
      "min": [
        -59.54304885864258,
        -629.28076171875,
        -227.85159301757813
      ],
      "type": "VEC3"
    },
    {
      "bufferView": 2,
      "byteOffset": 1056,
      "componentType": 5126,
      "count": 88,
      "max": [
        1.0,
        1.0,
        0.0
      ],
      "min": [
        -1.0,
        -1.0,
        0.0
      ],
      "type": "VEC3"
    },
    {
      "bufferView": 0,
      "componentType": 5125,
      "count": 240,
      "type": "SCALAR"
    },
    {
      "bufferView": 2,
      "byteOffset": 2112,
      "componentType": 5126,
      "count": 568,
      "max": [
        59.26567077636719,
        106.88409423828125,
        188.80545043945313
      ],
      "min": [
        -49.26566696166992,
        -670.3787841796875,
        -211.46817016601563
      ],
      "type": "VEC3"
    },
    {
      "bufferView": 2,
      "byteOffset": 8928,
      "componentType": 5126,
      "count": 568,
      "max": [
        1.0,
        1.0,
        1.0
      ],
      "min": [
        -1.0,
        -1.0,
        -1.0
      ],
      "type": "VEC3"
    },
    {
      "bufferView": 0,
      "byteOffset": 960,
      "componentType": 5125,
      "count": 1848,
      "type": "SCALAR"
    },
    {
      "bufferView": 2,
      "byteOffset": 15744,
      "componentType": 5126,
      "count": 1296,
      "max": [
        62.956390380859375,
        112.07110595703125,
        194.3306884765625
      ],
      "min": [
        -53.62255859375,
        -676.269775390625,
        -217.38807678222656
      ],
      "type": "VEC3"
    },
    {
      "bufferView": 2,
      "byteOffset": 31296,
      "componentType": 5126,
      "count": 1296,
      "max": [
        1.0,
        0.9999948740005493,
        1.0
      ],
      "min": [
        -1.0,
        -0.9999948740005493,
        -0.9927980899810791
      ],
      "type": "VEC3"
    },
    {
      "bufferView": 0,
      "byteOffset": 8352,
      "componentType": 5125,
      "count": 3816,
      "type": "SCALAR"
    },
    {
      "bufferView": 2,
      "byteOffset": 46848,
      "componentType": 5126,
      "count": 1728,
      "max": [
        62.956390380859375,
        114.65380859375,
        196.91339111328125
      ],
      "min": [
        -53.62255859375,
        -678.8524780273438,
        -219.97076416015625
      ],
      "type": "VEC3"
    },
    {
      "bufferView": 2,
      "byteOffset": 67584,
      "componentType": 5126,
      "count": 1728,
      "max": [
        0.8481495380401611,
        0.999995231628418,
        1.0
      ],
      "min": [
        -0.8481495380401611,
        -0.999995231628418,
        -1.0
      ],
      "type": "VEC3"
    },
    {
      "bufferView": 0,
      "byteOffset": 23616,
      "componentType": 5125,
      "count": 8904,
      "type": "SCALAR"
    },
    {
      "bufferView": 2,
      "byteOffset": 88320,
      "componentType": 5126,
      "count": 148,
      "max": [
        48.02891540527344,
        57.336669921875,
        89.16317749023438
      ],
      "min": [
        -38.02888870239258,
        -614.29443359375,
        -227.31881713867188
      ],
      "type": "VEC3"
    },
    {
      "bufferView": 2,
      "byteOffset": 90096,
      "componentType": 5126,
      "count": 148,
      "max": [
        0.0,
        -0.0,
        1.0
      ],
      "min": [
        0.0,
        -1.0,
        0.0
      ],
      "type": "VEC3"
    },
    {
      "bufferView": 1,
      "componentType": 5126,
      "count": 148,
      "max": [
        0.999891996383667,
        8.932729721069336
      ],
      "min": [
        0.00010699999984353781,
        -7.397243022918701
      ],
      "type": "VEC2"
    },
    {
      "bufferView": 0,
      "byteOffset": 59232,
      "componentType": 5125,
      "count": 222,
      "type": "SCALAR"
    },
    {
      "bufferView": 2,
      "byteOffset": 91872,
      "componentType": 5126,
      "count": 330,
      "max": [
        69.54304504394531,
        64.49420166015625,
        106.29067993164063
      ],
      "min": [
        -59.54304885864258,
        -629.2808227539063,
        -227.85159301757813
      ],
      "type": "VEC3"
    },
    {
      "bufferView": 2,
      "byteOffset": 95832,
      "componentType": 5126,
      "count": 330,
      "max": [
        1.0,
        1.0,
        0.9703481197357178
      ],
      "min": [
        -1.0,
        -1.0,
        -1.0
      ],
      "type": "VEC3"
    },
    {
      "bufferView": 0,
      "byteOffset": 60120,
      "componentType": 5125,
      "count": 1146,
      "type": "SCALAR"
    },
    {
      "bufferView": 2,
      "byteOffset": 99792,
      "componentType": 5126,
      "count": 80,
      "max": [
        69.51386260986328,
        158.71389770507813,
        89.7627944946289
      ],
      "min": [
        -59.513938903808594,
        -723.50048828125,
        -227.85159301757813
      ],
      "type": "VEC3"
    },
    {
      "bufferView": 2,
      "byteOffset": 100752,
      "componentType": 5126,
      "count": 80,
      "max": [
        1.0,
        1.0,
        1.0
      ],
      "min": [
        -1.0,
        -1.0,
        -1.0
      ],
      "type": "VEC3"
    },
    {
      "bufferView": 0,
      "byteOffset": 64704,
      "componentType": 5125,
      "count": 168,
      "type": "SCALAR"
    }
  ],
  "asset": {
    "extras": {
      "author": "1-3D.com (https://sketchfab.com/1-3D.com)",
      "license": "CC-BY-SA-4.0 (http://creativecommons.org/licenses/by-sa/4.0/)",
      "source": "https://sketchfab.com/3d-models/escalator-da1997bf0ab64fb4aa3e3130fdc1d325",
      "title": "Escalator"
    },
    "generator": "Sketchfab-12.78.0",
    "version": "2.0"
  },
  "bufferViews": [
    {
      "buffer": 0,
      "byteLength": 65376,
      "name": "floatBufferViews",
      "target": 34963
    },
    {
      "buffer": 0,
      "byteLength": 1184,
      "byteOffset": 65376,
      "byteStride": 8,
      "name": "floatBufferViews",
      "target": 34962
    },
    {
      "buffer": 0,
      "byteLength": 101712,
      "byteOffset": 66560,
      "byteStride": 12,
      "name": "floatBufferViews",
      "target": 34962
    }
  ],
  "buffers": [
    {
      "byteLength": 168272,
      "uri": "scene.bin"
    }
  ],
  "images": [
    {
      "uri": "textures/stairs_baseColor.jpeg"
    }
  ],
  "materials": [
    {
      "doubleSided": true,
      "name": "BlackPlasticTap",
      "pbrMetallicRoughness": {
        "baseColorFactor": [
          0.011735,
          0.011735,
          0.011735,
          1.0
        ],
        "metallicFactor": 0.0,
        "roughnessFactor": 0.9340775075351841
      }
    },
    {
      "alphaMode": "BLEND",
      "doubleSided": true,
      "name": "glass",
      "pbrMetallicRoughness": {
        "baseColorFactor": [
          0.524607,
          0.603119,
          0.64,
          0.198582
        ],
        "metallicFactor": 0.0,
        "roughnessFactor": 0.8434915419926713
      }
    },
    {
      "doubleSided": true,
      "name": "lightmetal",
      "pbrMetallicRoughness": {
        "baseColorFactor": [
          0.49991,
          0.525157,
          0.55855,
          1.0
        ],
        "metallicFactor": 0.0,
        "roughnessFactor": 0.8679112436786387
      }
    },
    {
      "doubleSided": true,
      "name": "metalRail",
      "pbrMetallicRoughness": {
        "baseColorFactor": [
          0.358379,
          0.358379,
          0.358379,
          1.0
        ],
        "metallicFactor": 0.0,
        "roughnessFactor": 0.8745713046006827
      }
    },
    {
      "doubleSided": true,
      "name": "metalicCover",
      "pbrMetallicRoughness": {
        "baseColorFactor": [
          0.456373,
          0.456373,
          0.456373,
          1.0
        ],
        "metallicFactor": 0.0,
        "roughnessFactor": 0.869554744418948
      }
    },
    {
      "doubleSided": true,
      "name": "rails",
      "pbrMetallicRoughness": {
        "baseColorFactor": [
          0.026481,
          0.026481,
          0.026481,
          1.0
        ],
        "metallicFactor": 0.0,
        "roughnessFactor": 0.9740997993588865
      }
    },
    {
      "doubleSided": true,
      "name": "stairs",
      "pbrMetallicRoughness": {
        "baseColorTexture": {
          "index": 0
        },
        "metallicFactor": 0.0,
        "roughnessFactor": 0.9006519003888325
      }
    }
  ],
  "meshes": [
    {
      "name": "Object_0",
      "primitives": [
        {
          "attributes": {
            "NORMAL": 1,
            "POSITION": 0
          },
          "indices": 2,
          "material": 0,
          "mode": 4
        }
      ]
    },
    {
      "name": "Object_1",
      "primitives": [
        {
          "attributes": {
            "NORMAL": 4,
            "POSITION": 3
          },
          "indices": 5,
          "material": 1,
          "mode": 4
        }
      ]
    },
    {
      "name": "Object_2",
      "primitives": [
        {
          "attributes": {
            "NORMAL": 7,
            "POSITION": 6
          },
          "indices": 8,
          "material": 3,
          "mode": 4
        }
      ]
    },
    {
      "name": "Object_3",
      "primitives": [
        {
          "attributes": {
            "NORMAL": 10,
            "POSITION": 9
          },
          "indices": 11,
          "material": 5,
          "mode": 4
        }
      ]
    },
    {
      "name": "Object_4",
      "primitives": [
        {
          "attributes": {
            "NORMAL": 13,
            "POSITION": 12,
            "TEXCOORD_0": 14
          },
          "indices": 15,
          "material": 6,
          "mode": 4
        }
      ]
    },
    {
      "name": "Object_5",
      "primitives": [
        {
          "attributes": {
            "NORMAL": 17,
            "POSITION": 16
          },
          "indices": 18,
          "material": 2,
          "mode": 4
        }
      ]
    },
    {
      "name": "Object_6",
      "primitives": [
        {
          "attributes": {
            "NORMAL": 20,
            "POSITION": 19
          },
          "indices": 21,
          "material": 4,
          "mode": 4
        }
      ]
    }
  ],
  "nodes": [
    {
      "children": [
        1
      ],
      "matrix": [
        1.0,
        0.0,
        0.0,
        0.0,
        0.0,
        2.220446049250313e-16,
        -1.0,
        0.0,
        0.0,
        1.0,
        2.220446049250313e-16,
        0.0,
        0.0,
        0.0,
        0.0,
        1.0
      ],
      "name": "Sketchfab_model"
    },
    {
      "children": [
        2,
        3,
        4,
        5,
        6,
        7,
        8
      ],
      "name": "escalator.obj.cleaner.materialmerger.gles"
    },
    {
      "mesh": 0,
      "name": "Object_2"
    },
    {
      "mesh": 1,
      "name": "Object_3"
    },
    {
      "mesh": 2,
      "name": "Object_4"
    },
    {
      "mesh": 3,
      "name": "Object_5"
    },
    {
      "mesh": 4,
      "name": "Object_6"
    },
    {
      "mesh": 5,
      "name": "Object_7"
    },
    {
      "mesh": 6,
      "name": "Object_8"
    }
  ],
  "samplers": [
    {
      "magFilter": 9729,
      "minFilter": 9987,
      "wrapS": 10497,
      "wrapT": 10497
    }
  ],
  "scene": 0,
  "scenes": [
    {
      "name": "Sketchfab_Scene",
      "nodes": [
        0
      ]
    }
  ],
  "textures": [
    {
      "sampler": 0,
      "source": 0
    }
  ]
}
